<svg t="1685092124516" class="icon" viewBox="0 0 1024 1024" version="1.1" xmlns="http://www.w3.org/2000/svg" p-id="1849" width="250" height="250"><path d="M481.466182 1022.696727v-101.655272a466.757818 466.757818 0 0 1-139.822546-34.071273 233.658182 233.658182 0 0 1-93.090909-79.313455 260.654545 260.654545 0 0 1-45.614545-133.678545l115.432727-18.618182a239.802182 239.802182 0 0 0 47.104 120.273455 172.776727 172.776727 0 0 0 115.991273 60.322909V511.813818a518.888727 518.888727 0 0 1-144.663273-48.593454A197.911273 197.911273 0 0 1 223.418182 279.272727a211.688727 211.688727 0 0 1 86.760727-175.569454q57.902545-45.056 172.032-55.854546V0h67.584v48.593455A305.710545 305.710545 0 0 1 707.490909 100.538182a224.349091 224.349091 0 0 1 90.484364 151.738182l-118.597818 15.825454a164.212364 164.212364 0 0 0-42.449455-91.787636 163.095273 163.095273 0 0 0-88.250182-42.077091v293.050182a1002.216727 1002.216727 0 0 1 114.688 29.975272 288.954182 288.954182 0 0 1 87.319273 50.827637 204.8 204.8 0 0 1 51.944727 71.121454 218.763636 218.763636 0 0 1 18.618182 89.181091A230.493091 230.493091 0 0 1 744.727273 844.334545a296.029091 296.029091 0 0 1-196.235637 75.589819v102.772363z m0-889.390545a178.362182 178.362182 0 0 0-105.565091 47.290182 123.997091 123.997091 0 0 0-38.539636 90.856727 122.135273 122.135273 0 0 0 32.768 86.946909q32.768 35.002182 111.70909 55.854545z m67.584 702.091636a177.803636 177.803636 0 0 0 110.592-51.386182 148.945455 148.945455 0 0 0 43.566545-108.916363 126.045091 126.045091 0 0 0-30.906182-88.808728q-30.906182-33.512727-123.252363-60.136727z" p-id="1850"></path></svg>