<?xml version="1.0" standalone="no"?><!DOCTYPE svg PUBLIC "-//W3C//DTD SVG 1.1//EN" "http://www.w3.org/Graphics/SVG/1.1/DTD/svg11.dtd"><svg t="1688981873624" class="icon" viewBox="0 0 1024 1024" version="1.1" xmlns="http://www.w3.org/2000/svg" p-id="29732" width="320" height="320" xmlns:xlink="http://www.w3.org/1999/xlink"><path d="M800 938.666667h-576C147.2 938.666667 85.333333 876.8 85.333333 800V524.8C85.333333 471.466667 128 426.666667 181.333333 426.666667c17.066667 0 32 4.266667 46.933334 10.666666l249.6 134.4c21.333333 12.8 49.066667 12.8 70.4 0l249.6-134.4c46.933333-25.6 104.533333-8.533333 130.133333 38.4 8.533333 14.933333 10.666667 29.866667 10.666667 46.933334v275.2c-2.133333 78.933333-64 140.8-138.666667 140.8z m-618.666667-448c-6.4 0-10.666667 2.133333-17.066666 4.266666-8.533333 6.4-14.933333 17.066667-14.933334 29.866667v275.2c0 40.533333 34.133333 74.666667 74.666667 74.666667h573.866667c40.533333 0 74.666667-34.133333 74.666666-74.666667V524.8c0-17.066667-14.933333-32-32-32-6.4 0-10.666667 2.133333-14.933333 4.266667L576 631.466667c-40.533333 21.333333-91.733333 21.333333-132.266667 0L196.266667 494.933333c-4.266667-2.133333-8.533333-4.266667-14.933334-4.266666z" fill="#dbdbdb" p-id="29733"></path><path d="M213.333333 501.333333c-17.066667 0-32-14.933333-32-32V224C181.333333 147.2 243.2 85.333333 320 85.333333h384c76.8 0 138.666667 61.866667 138.666667 138.666667v226.133333c0 17.066667-14.933333 32-32 32s-32-14.933333-32-32V224C778.666667 183.466667 744.533333 149.333333 704 149.333333H320c-40.533333 0-74.666667 34.133333-74.666667 74.666667V469.333333c0 17.066667-12.8 32-32 32z" fill="#dbdbdb" p-id="29734"></path><path d="M618.666667 296.533333H405.333333c-17.066667 0-32-14.933333-32-32s14.933333-32 32-32h213.333334c17.066667 0 32 14.933333 32 32s-12.8 32-32 32zM618.666667 426.666667H405.333333c-17.066667 0-32-14.933333-32-32S388.266667 362.666667 405.333333 362.666667h213.333334c17.066667 0 32 14.933333 32 32S637.866667 426.666667 618.666667 426.666667z" fill="#dbdbdb" p-id="29735"></path></svg>