<svg t="1689821007044" class="icon" viewBox="0 0 1024 1024" version="1.1" xmlns="http://www.w3.org/2000/svg" p-id="809" width="275" height="275"><path d="M535.059323 16.658095C331.88413 16.658095 167.175118 181.171702 167.175118 384.1036 167.175118 587.039331 331.88413 751.558051 535.059323 751.558051 738.229398 751.558051 902.94353 587.039331 902.94353 384.1036 902.94353 181.171702 738.229398 16.658095 535.059323 16.658095L535.059323 16.658095ZM535.059323 702.56259C358.97501 702.56259 216.228393 559.985493 216.228393 384.1036 216.228393 208.225539 358.97501 65.648443 535.059323 65.648443 711.1398 65.648443 853.890254 208.225539 853.890254 384.1036 853.890254 559.985493 711.1398 702.56259 535.059323 702.56259L535.059323 702.56259ZM535.059323 114.643904C386.06077 114.643904 265.276549 235.28449 265.276549 384.1036 265.276549 532.931656 386.06077 653.56713 535.059323 653.56713 684.054038 653.56713 804.836979 532.931656 804.836979 384.1036 804.836979 235.28449 684.054038 114.643904 535.059323 114.643904L535.059323 114.643904ZM535.059323 604.576781C413.151648 604.576781 314.329824 505.872707 314.329824 384.1036 314.329824 262.343438 413.151648 163.639364 535.059323 163.639364 656.973397 163.639364 755.788822 262.343438 755.788822 384.1036 755.788822 505.872707 656.973397 604.576781 535.059323 604.576781L535.059323 604.576781ZM763.906362 629.09496 857.493499 810.248826C819.481562 795.417014 775.582362 796.220909 736.470002 816.374536 697.35892 836.538387 671.262261 871.815221 661.336702 911.345416L567.753403 730.200498 535.059323 747.060581 676.466238 1020.753189 709.160318 1003.90461 705.875683 997.538626C677.924939 943.436062 699.168221 876.942771 753.334624 849.02497 807.511264 821.11228 874.068941 842.340749 902.028642 896.443312L905.313277 902.797794 938.006077 885.954326 934.712485 879.593454 796.600442 612.255326 763.906362 629.09496 763.906362 629.09496ZM290.817878 658.888944 212.625147 810.248826C250.631966 795.417014 294.532446 796.220909 333.648645 816.369424 372.754608 836.538387 398.851267 871.815221 408.783226 911.345416L492.589394 749.132306 532.740758 751.547826 396.931925 1014.393595 393.652408 1020.753189 360.95961 1003.90461 364.242965 997.538626C392.193709 943.436062 370.945307 876.942771 316.789141 849.02497 262.607384 821.11228 196.050985 842.340749 168.090005 896.443312L164.80665 902.797794 132.11257 885.954326 135.406162 879.593454 263.387916 631.870893 290.817878 658.888944 290.817878 658.888944Z" fill="#dbdbdb" p-id="810"></path></svg>