<?xml version="1.0" encoding="UTF-8"?><svg id="Layer_1" xmlns="http://www.w3.org/2000/svg" viewBox="0 0 716.29 96.29"><defs><style>.cls-1{fill:#fff;}</style></defs><g><path class="cls-1" d="M466.9,0c-13.67,0-26.26,5.02-35.46,14.13-9.05,8.97-14.05,21.05-14.05,34.01v.25c0,12.96,4.95,24.99,13.92,33.88,9.12,9.03,21.67,14,35.33,14s26.26-5.02,35.46-14.13c9.05-8.97,14.04-21.05,14.04-34v-.25c0-12.96-4.94-24.99-13.92-33.88-9.12-9.04-21.67-14.01-35.33-14.01Zm22.87,48.38c0,13.6-9.83,23.86-22.87,23.86s-23.11-10.36-23.11-24.1v-.25c0-13.61,9.83-23.86,22.86-23.86s23.11,10.36,23.11,24.11v.25Z"/><path class="cls-1" d="M305.29,24.58c1.43,0,2.59-1.16,2.59-2.59V3.75c0-1.43-1.16-2.59-2.59-2.59h-68.12c-1.43,0-2.59,1.16-2.59,2.59V92.47c0,1.43,1.16,2.59,2.59,2.59h68.12c1.43,0,2.59-1.16,2.59-2.59v-18.24c0-1.43-1.16-2.59-2.59-2.59h-45.32v-12.45l39.09,.02c1.43,0,2.59-1.16,2.59-2.59v-8.71c0-.12,.02-.24,.02-.37s-.02-.25-.02-.38v-8.78c0-1.43-1.16-2.59-2.59-2.59l-39.09-.02v-11.22l45.32,.02Z"/><path class="cls-1" d="M405.77,3.74c0-1.43-1.17-2.59-2.6-2.59h-20.25c-1.43,0-2.6,1.16-2.6,2.59l.17,44.62L347.14,4.72c-2.91-3.75-4.48-3.55-9.26-3.55h-13.15c-1.43,0-2.59,1.16-2.59,2.59l.02,88.75c0,1.43,1.16,2.6,2.59,2.6h20.25c1.43,0,2.59-1.16,2.59-2.6l-.17-47.02,35.18,46.07c2.95,3.77,4.48,3.55,9.26,3.55h11.3c1.43,0,2.6-1.16,2.6-2.6V3.74Z"/><path class="cls-1" d="M619.91,26.05c-2.24-4.41-5.18-8.47-8.76-12.02C602.03,5,589.48,.02,575.82,.02s-26.26,5.02-35.45,14.13c-9.06,8.97-14.05,21.05-14.05,34.01v.25c0,12.96,4.94,24.99,13.92,33.88,9.12,9.03,21.67,14,35.33,14s26.26-5.02,35.46-14.13c4.69-4.65,8.28-10.13,10.66-16.13l.41-1.07c1.95-5.29,2.93-10.95,2.93-16.8l-.04-1.85c-.02-1.42-1.17-2.56-2.59-2.56h-46.46c-1.43,0-2.59,1.16-2.59,2.59v16.1c0,1.43,1.17,2.59,2.59,2.59h14.33c-.64,2.24-3.16,7.23-14.44,7.23-13.18,0-23.11-10.36-23.11-24.1v-.25c0-13.61,9.83-23.86,22.86-23.86,4.51,0,9.28,1.25,12.13,3.36,2.11,1.57,3.55,2.64,7.52,2.64h22.22c1.53,0,2.77-1.25,2.77-2.78h0c0-.43-.1-.84-.28-1.21v-.02Z"/><path class="cls-1" d="M223.76,90.7h0l-19.96-29.86c10.17-5.6,15.51-15.04,15.51-27.56v-.25c0-8.99-2.9-16.64-8.38-22.13-6.37-6.37-15.91-9.74-27.58-9.74h-40.33c-1.43,0-2.59,1.18-2.59,2.62V22.16c0,1.43,1.16,2.59,2.59,2.59l38.71,.06c7.84,0,11.82,3.1,11.82,9.21v.25c0,5.77-4.17,9.08-11.44,9.08l-39.08,.03c-1.43,0-2.59,1.16-2.59,2.59v46.53c0,1.43,1.16,2.6,2.59,2.6h20.25c1.43,0,2.59-1.16,2.59-2.6l.08-25.87h9.57l15.76,24.88c2.96,3.86,4.48,3.59,9.26,3.59h21.08c1.43,0,2.59-1.16,2.59-2.59v-.36c0-.54-.17-1.04-.45-1.46Z"/><path class="cls-1" d="M693.5,1.17c-4.78,0-7.4-.21-9.26,3.5l-16.65,32.93-17.14-32.93c-1.86-3.71-4.48-3.51-9.26-3.51h-15.75c-.18,0-.36,.02-.53,.05-1.28,.25-2.24,1.37-2.24,2.72,0,.52,.15,1,.4,1.41v.03l31.51,56.59,.1,30.54c0,1.43,1.16,2.6,2.59,2.6h20.25c1.43,0,2.59-1.16,2.59-2.6l-.02-30.5L712.55,3.71c0-1.43-1.16-2.59-2.59-2.59,0,0-16.14,.05-16.45,.05Z"/><path class="cls-1" d="M698.24,85.69c0-5.6,4.07-9.43,9-9.43s9.05,3.83,9.05,9.43-4.07,9.43-9.05,9.43-9-3.83-9-9.43Zm16.13,0c0-4.5-3.11-7.71-7.13-7.71s-7.08,3.21-7.08,7.71,3.06,7.66,7.08,7.66,7.13-3.11,7.13-7.66Zm-10.58-4.98h3.64c2.01,0,3.73,.81,3.73,3.11,0,1.15-.72,2.25-1.77,2.63l2.2,3.97h-2.2l-1.68-3.35h-1.96v3.35h-1.96v-9.71Zm3.21,4.83c1.29,0,2.06-.57,2.06-1.63,0-.96-.53-1.58-1.96-1.58h-1.34v3.21h1.24Z"/></g><g><rect class="cls-1" x="65.88" y="34.32" width="27.8" height="27.8" rx="2.95" ry="2.95"/><path class="cls-1" d="M35.77,62.13h21.41l-24.35-24.35v21.41c0,1.63,1.32,2.95,2.95,2.95Z"/><path class="cls-1" d="M57.68,34.32h-21.23l24.18,24.18v-21.23c0-1.63-1.32-2.95-2.95-2.95Z"/><path class="cls-1" d="M2.95,29.19H24.24L0,4.95V26.24c0,1.63,1.32,2.95,2.95,2.95Z"/><path class="cls-1" d="M90.74,67.26h-21.35l24.3,24.3v-21.35c0-1.63-1.32-2.95-2.95-2.95Z"/><path class="cls-1" d="M68.83,29.19h21.91c1.63,0,2.95-1.32,2.95-2.95v-.04c0-13.7-11.11-24.81-24.82-24.81h-.04c-1.63,0-2.95,1.32-2.95,2.95V26.24c0,1.63,1.32,2.95,2.95,2.95Z"/><rect class="cls-1" y="34.32" width="27.8" height="27.8" rx="2.95" ry="2.95"/><rect class="cls-1" x="32.83" y="67.26" width="27.8" height="27.8" rx="2.95" ry="2.95"/><path class="cls-1" d="M65.88,70.83v21.29c0,1.63,1.32,2.95,2.95,2.95h21.29l-24.24-24.24Z"/><rect class="cls-1" x="32.83" y="1.38" width="27.8" height="27.8" rx="2.95" ry="2.95"/><path class="cls-1" d="M27.8,25.68V4.33c0-1.63-1.32-2.95-2.95-2.95H3.51L27.8,25.68Z"/><path class="cls-1" d="M25.4,67.26H2.95c-1.63,0-2.95,1.32-2.95,2.95H0c0,13.73,11.13,24.86,24.85,24.86h0c1.63,0,2.95-1.32,2.95-2.95v-22.45c0-1.33-1.08-2.4-2.4-2.4Z"/></g></svg>